<svg xmlns="http://www.w3.org/2000/svg" width="53.45" height="53.45" viewBox="0 0 53.45 53.45">
  <g id="edit" transform="translate(0 -0.004)">
    <g id="Group_18" data-name="Group 18" transform="translate(0 3.822)">
      <g id="Group_17" data-name="Group 17">
        <path id="Path_37" data-name="Path 37" d="M43.905,57.044A1.909,1.909,0,0,0,42,58.953V78.042a1.909,1.909,0,0,1-1.909,1.909H5.727a1.909,1.909,0,0,1-1.909-1.909V39.864a1.909,1.909,0,0,1,1.909-1.909H28.634a1.909,1.909,0,1,0,0-3.818H5.727A5.727,5.727,0,0,0,0,39.864V78.042a5.727,5.727,0,0,0,5.727,5.727H40.087a5.727,5.727,0,0,0,5.727-5.727V58.953A1.909,1.909,0,0,0,43.905,57.044Z" transform="translate(0 -34.137)" fill="#8d8686"/>
      </g>
    </g>
    <g id="Group_20" data-name="Group 20" transform="translate(11.454 0.004)">
      <g id="Group_19" data-name="Group 19">
        <path id="Path_38" data-name="Path 38" d="M142.265,2.144a7.307,7.307,0,0,0-10.336,0L106.785,27.288a1.93,1.93,0,0,0-.46.746l-3.818,11.454A1.909,1.909,0,0,0,104.317,42a1.939,1.939,0,0,0,.6-.1l11.454-3.818a1.909,1.909,0,0,0,.746-.462l25.144-25.144A7.308,7.308,0,0,0,142.265,2.144Z" transform="translate(-102.409 -0.004)" fill="#8d8686"/>
      </g>
    </g>
  </g>
</svg>
