<svg xmlns="http://www.w3.org/2000/svg" xmlns:xlink="http://www.w3.org/1999/xlink" width="90.86" height="90.59" viewBox="0 0 90.86 90.59">
  <defs>
    <linearGradient id="linear-gradient" x1="0.5" y1="1" x2="0.5" gradientUnits="objectBoundingBox">
      <stop offset="0" stop-color="#9f2fff"/>
      <stop offset="1" stop-color="#0bb1d3"/>
    </linearGradient>
  </defs>
  <path id="esqueleto" d="M31.719,55.062A4.383,4.383,0,1,0,36.1,59.445,4.389,4.389,0,0,0,31.719,55.062Zm0,5.845a1.461,1.461,0,1,1,1.461-1.461A1.463,1.463,0,0,1,31.719,60.906ZM22.155,45.373,21.519,42.2l2.865-.574L25.02,44.8a4.378,4.378,0,0,0,3.754,3.491l5.153.644a7.262,7.262,0,0,1,4.8,2.684l4.361,5.451L40.8,58.9l-4.361-5.451a4.369,4.369,0,0,0-2.878-1.612l-5.153-.644A7.294,7.294,0,0,1,22.155,45.373Zm67.573,21.24L88.765,40.63a9.291,9.291,0,0,0-9.284-8.946H78a8.753,8.753,0,0,0-6.62,3.02,12.1,12.1,0,0,0-8-3.02H56.558V29.455a13.16,13.16,0,0,0,8.767-12.383V3.922h2.922V1H21.491V3.922h3.076l.842,7.574a21,21,0,0,0,9.233,15.168v3.415a5.859,5.859,0,0,1-4.7,5.731l-9.275,1.856A21.459,21.459,0,0,0,3.476,57.122L.923,91.59h48.33a4.389,4.389,0,0,0,4.383-4.383V81.362a4.409,4.409,0,0,0-.069-.685L57.244,86.8a9.857,9.857,0,0,0,18.309-5.07V71.488a16.327,16.327,0,0,0-3.58-10.232A12.121,12.121,0,0,0,74.73,48.266a12.024,12.024,0,0,0,.538-1.815,6.934,6.934,0,0,0,1.838.916c.482,5.665,2.83,33.7,2.83,42.761V91.59H91.783l-.165-1.612C91.6,89.823,90.012,74.319,89.727,66.613ZM63.383,34.606a9.248,9.248,0,0,1,2.022,18.273l-8.847,1.847v-2.8c0-.038-.007-.073-.007-.11l8.2-1.787a6.327,6.327,0,0,0-1.372-12.5H56.428a5.788,5.788,0,0,0,.13-1.163,5.7,5.7,0,0,0-.286-1.759ZM23.828,69.273q.333.215.681.408l1.265,18.987h-6.8Zm3.685,1.552a11.777,11.777,0,0,0,2.643.31h4.9a18.779,18.779,0,0,0-1.876,8.19v9.344H28.7Zm17.357,3.232H37.007a15.887,15.887,0,0,1,1.372-2.922h6.49Zm0,8.767H36.1v-3.5a16.041,16.041,0,0,1,.172-2.345h8.594ZM36.1,85.745h8.767v2.922H36.1ZM47.792,71.134h1.461A1.463,1.463,0,0,1,50.714,72.6v2.922a1.463,1.463,0,0,1-1.461,1.461H47.792Zm4.23-4.478-3.114,1.556H47.792V47.756h1.116l3.114,1.556a2.906,2.906,0,0,1,1.615,2.614V64.04A2.907,2.907,0,0,1,52.022,66.656Zm-4.23-48.122h2.922v2.922H47.792Zm5.845,0h2.653a4.379,4.379,0,0,1-2.653,2.653Zm2.922-2.922H53.636V12.689h2.922Zm-5.845,0H47.792V12.689h2.922Zm-5.845,0H39.63l.251-.251a9.053,9.053,0,0,1,4.988-2.545Zm0,2.922V21.4A9.169,9.169,0,0,1,39.1,18.534ZM53.328,46.7l-.826-.412a4.348,4.348,0,0,0,1.134-2.913V41.348a5.741,5.741,0,0,0,1.2-.9h8.543a3.4,3.4,0,0,1,.744,6.723L55.768,49a5.816,5.816,0,0,0-2.44-2.3Zm-5.536-4.787h2.922v1.461a1.463,1.463,0,0,1-1.461,1.461H47.792Zm5.755-6.086a2.826,2.826,0,0,1,.089.539A2.771,2.771,0,0,1,52.1,38.856l-.266.133h-4.04V36.067h4.383a4.317,4.317,0,0,0,1.372-.241Zm.089-4.142a1.463,1.463,0,0,1-1.461,1.461H47.792V30.223h4.383a13.054,13.054,0,0,0,1.461-.086ZM62.4,17.072A10.24,10.24,0,0,1,52.175,27.3H47.792V24.378h4.383a7.314,7.314,0,0,0,7.306-7.306V6.845H56.558V9.767H47.792V3.922H62.4Zm-34.091-5.9-.805-7.252H44.869V9.865a11.939,11.939,0,0,0-7.054,3.429l-3.641,3.641,1.968,2.624a12.089,12.089,0,0,0,8.727,4.765v2.908A18.1,18.1,0,0,1,28.312,11.174ZM6.391,57.337A18.538,18.538,0,0,1,21.243,40.529l9.274-1.856a8.787,8.787,0,0,0,7.047-8.6V28.3a20.947,20.947,0,0,0,7.306,1.857V68.212H30.156a8.738,8.738,0,0,1-8.647-7.326l-1.5-8.986-2.883.479,1.5,8.986a11.671,11.671,0,0,0,2.725,5.77L15.967,88.668H4.07Zm44.323,29.87a1.463,1.463,0,0,1-1.461,1.461H47.792V79.9h1.461a1.463,1.463,0,0,1,1.461,1.461Zm14.981,1.461A6.969,6.969,0,0,1,59.748,85.3L53.636,75.113V72.6A4.353,4.353,0,0,0,52.5,69.682l.826-.412a5.852,5.852,0,0,0,.643-.38l1.378,1.1a18.5,18.5,0,0,0,17.281,3.162V76.57A6.5,6.5,0,0,1,66.967,79.9h-1.3a12.452,12.452,0,0,1-5.536-1.308l-1.306,2.614a15.372,15.372,0,0,0,6.842,1.616h1.3A9.237,9.237,0,0,0,72.631,80.9v.837a6.943,6.943,0,0,1-6.936,6.935Zm6.863-18.562-.681.226a15.831,15.831,0,0,1-14.7-2.623L55.91,66.7c.023-.045.05-.091.072-.137L66.019,64.5a12.293,12.293,0,0,0,3.646-1.452,13.4,13.4,0,0,1,2.893,7.057Zm.073-17.485a9.188,9.188,0,0,1-7.221,9.024L56.558,63.46V57.709l9.462-1.975a12.145,12.145,0,0,0,6.569-3.906c.022.263.041.526.041.792ZM82.843,88.668c-.2-10.146-2.224-34.488-2.776-40.983a6.38,6.38,0,0,0,3.827-1.818L81.826,43.8a3.927,3.927,0,0,1-5.416-.177l-.915-.915a12.1,12.1,0,0,0-2.13-5.8A5.828,5.828,0,0,1,78,34.606h1.48a6.367,6.367,0,0,1,6.363,6.132l.963,25.983c.234,6.314,1.327,17.738,1.742,21.946Z" transform="translate(-0.923 -1)" fill="url(#linear-gradient)"/>
</svg>
