<svg id="figado_1_" data-name="figado (1)" xmlns="http://www.w3.org/2000/svg" width="102.615" height="101.16" viewBox="0 0 102.615 101.16">
  <path id="Path_66" data-name="Path 66" d="M25.821,43.2V67.4a3.549,3.549,0,1,0,7.1,0V39C30.627,40.455,28.261,41.861,25.821,43.2Z" transform="translate(20.004 30.214)" fill="#556080"/>
  <path id="Path_67" data-name="Path 67" d="M54.693,43.212H51.144a10.647,10.647,0,0,1-10.6-9.649c-1.958,1.583-4.016,3.177-6.176,4.758a17.745,17.745,0,0,0,16.775,11.99h3.549a3.549,3.549,0,1,0,0-7.1Z" transform="translate(26.626 26.002)" fill="#f5b05c"/>
  <path id="Path_68" data-name="Path 68" d="M37.244,16.2a1.775,1.775,0,0,1-1.775-1.775A8.884,8.884,0,0,0,26.6,5.549,1.775,1.775,0,0,1,26.6,2,12.437,12.437,0,0,1,39.019,14.423,1.774,1.774,0,0,1,37.244,16.2Z" transform="translate(19.229 1.549)" fill="#366db6"/>
  <path id="Path_69" data-name="Path 69" d="M35.6,16.2a1.775,1.775,0,1,1,0-3.549,8.884,8.884,0,0,0,8.874-8.874,1.775,1.775,0,1,1,3.549,0A12.437,12.437,0,0,1,35.6,16.2Z" transform="translate(26.202 1.549)" fill="#366db6"/>
  <path id="Path_70" data-name="Path 70" d="M34.534,23.577c1.122.252,2.252.454,3.386.632V3.549a3.549,3.549,0,0,0-7.1,0v19.3C32.164,23.086,33.437,23.33,34.534,23.577Z" transform="translate(23.878)" fill="#556080"/>
  <path id="Path_71" data-name="Path 71" d="M8.37,13.1h1.775a10.606,10.606,0,0,1,8.742,4.627,42.014,42.014,0,0,1,7.422-1.267A17.73,17.73,0,0,0,10.145,6H8.37a3.549,3.549,0,0,0,0,7.1Z" transform="translate(3.735 4.648)" fill="#f5b05c"/>
  <path id="Path_72" data-name="Path 72" fill="none" stroke="#000" stroke-linecap="round" stroke-linejoin="round" stroke-miterlimit="10" stroke-width="2"/>
  <path id="Path_73" data-name="Path 73" fill="none" stroke="#000" stroke-linecap="round" stroke-linejoin="round" stroke-miterlimit="10" stroke-width="2"/>
  <path id="Path_74" data-name="Path 74" d="M3.083,34.844q.335-1.1.712-2.188A39.1,39.1,0,0,1,9.367,21.631c7.023-9.22,19.444-10.38,30.213-9.816a136.271,136.271,0,0,1,18.832,2.573,53.626,53.626,0,0,0,15.236,1.17c6.895-.447,15.712-2.408,21.057-5.319a5.3,5.3,0,0,1,7.448,6.7c-1.375,3.108-4.35,7.259-9.928,12.8-1.785,1.773-3.537,3.562-5.214,5.438-5.684,6.357-22.541,23.788-44.24,34.832a48.31,48.31,0,0,1-13.108,4.565A21.3,21.3,0,0,0,13.88,86.645c-.758,1.592-1.06,7.2-7.1,7.1-1.524-.025-3.177-2.619-3.462-6.407-.394-5.214-1.993-10.2-2.513-15.415C-.447,59.378-.614,46.948,3.083,34.844Z" transform="translate(0 7.415)" fill="#b24648"/>
  <g id="Group_31" data-name="Group 31" transform="translate(6.246 26.621)">
    <path id="Path_75" data-name="Path 75" d="M7.6,59.619a1.8,1.8,0,0,1-.453-.059,1.773,1.773,0,0,1-1.288-1.374c-.03-.154-.089-.412-.167-.756-.811-3.622-3.28-14.643-1.608-23a1.775,1.775,0,0,1,3.48.7c-.921,4.6-.559,11.014,1.07,19.082A33.461,33.461,0,0,1,25,45.956,40.1,40.1,0,0,0,35.2,42.069a1.775,1.775,0,0,1,1.61,3.164,43.154,43.154,0,0,1-11.158,4.215,29.521,29.521,0,0,0-16.7,9.557,1.783,1.783,0,0,1-1.347.614Z" transform="translate(-3.52 -1.054)" fill="#892f34"/>
    <path id="Path_76" data-name="Path 76" d="M6.6,36.3a1.75,1.75,0,0,1-.58-.1,1.773,1.773,0,0,1-1.1-2.257A58.309,58.309,0,0,1,11.28,21.726C14.824,17.075,21.042,15,31.442,15a1.775,1.775,0,1,1,0,3.549c-9.184,0-14.531,1.643-17.339,5.328A54.562,54.562,0,0,0,8.273,35.1,1.773,1.773,0,0,1,6.6,36.3Z" transform="translate(-2.512 -15)" fill="#892f34"/>
    <path id="Path_77" data-name="Path 77" d="M33.953,51.134c3.013-2.181,5.848-4.389,8.474-6.563A24.985,24.985,0,0,0,40.463,20.71a1.775,1.775,0,0,0-2.843,2.124c.4.536,9.566,13.286-3.454,27.931a1.828,1.828,0,0,0-.213.369Z" transform="translate(20.058 -11.126)" fill="#892f34"/>
  </g>
</svg>
