<svg id="line" xmlns="http://www.w3.org/2000/svg" width="152.002" height="152" viewBox="0 0 152.002 152">
  <path id="Path_39" data-name="Path 39" d="M5.067,132.778V122.564h5.067v-5.107H5.067V107.244H15.2v-5.107H5.067V91.923h5.067V86.816H5.067V76.6H15.2V71.5H5.067V61.282h5.067V56.175H5.067V45.962H15.2V40.855H5.067V30.641h5.067V25.534H5.067V15.321H15.2V10.214H5.067V0H0V135.331a2.542,2.542,0,0,0,2.533,2.553H152v-5.107Z" fill="#5aaae7"/>
  <g id="Group_21" data-name="Group 21" transform="translate(34.969 142.896)">
    <rect id="Rectangle_14" data-name="Rectangle 14" width="4" height="9" transform="translate(0.096 0.104)" fill="#69c229"/>
    <rect id="Rectangle_15" data-name="Rectangle 15" width="5" height="9" transform="translate(9.096 0.104)" fill="#69c229"/>
    <rect id="Rectangle_16" data-name="Rectangle 16" width="5" height="9" transform="translate(32.096 0.104)" fill="#69c229"/>
    <rect id="Rectangle_17" data-name="Rectangle 17" width="5" height="9" transform="translate(42.096 0.104)" fill="#69c229"/>
    <rect id="Rectangle_18" data-name="Rectangle 18" width="5" height="9" transform="translate(65.096 0.104)" fill="#69c229"/>
    <rect id="Rectangle_19" data-name="Rectangle 19" width="4" height="9" transform="translate(75.096 0.104)" fill="#69c229"/>
    <rect id="Rectangle_20" data-name="Rectangle 20" width="5" height="9" transform="translate(98.096 0.104)" fill="#69c229"/>
    <rect id="Rectangle_21" data-name="Rectangle 21" width="4" height="9" transform="translate(108.096 0.104)" fill="#69c229"/>
  </g>
  <g id="Group_22" data-name="Group 22" transform="translate(34.969 51.906)">
    <circle id="Ellipse_3" data-name="Ellipse 3" cx="7" cy="7" r="7" transform="translate(0.096 56.094)" fill="#ffd422"/>
    <circle id="Ellipse_4" data-name="Ellipse 4" cx="7" cy="7" r="7" transform="translate(98.096 0.094)" fill="#ffd422"/>
    <path id="Path_40" data-name="Path 40" d="M206.106,262.937a6.493,6.493,0,0,1-.282,1.928,7.055,7.055,0,1,1,.282-1.928Z" transform="translate(-159.622 -225.629)" fill="#ffd422"/>
    <path id="Path_41" data-name="Path 41" d="M318.11,295.162a7.055,7.055,0,1,1-14.11,0,6.494,6.494,0,0,1,.282-1.928,7.055,7.055,0,0,1,13.828,1.928Z" transform="translate(-238.702 -248.448)" fill="#ffd422"/>
  </g>
  <g id="Group_23" data-name="Group 23" transform="translate(44.761 61.591)">
    <rect id="Rectangle_22" data-name="Rectangle 22" width="38.13" height="4.703" transform="matrix(-0.625, 0.781, -0.781, -0.625, 92.612, 2.938)" fill="#e7b900"/>
    <rect id="Rectangle_23" data-name="Rectangle 23" width="4.701" height="20.156" transform="translate(56.426 32.544) rotate(105.979)" fill="#e7b900"/>
    <rect id="Rectangle_24" data-name="Rectangle 24" width="28.22" height="4.701" transform="translate(25.398 33.441) rotate(143.143)" fill="#e7b900"/>
  </g>
  <g id="Group_24" data-name="Group 24" transform="translate(34.969 14.11)">
    <circle id="Ellipse_5" data-name="Ellipse 5" cx="7" cy="7" r="7" transform="translate(0.096 51.89)" fill="#f40e34"/>
    <path id="Path_42" data-name="Path 42" d="M206.11,55.055A7.055,7.055,0,1,1,199.055,48,7.055,7.055,0,0,1,206.11,55.055Z" transform="translate(-159.626 -48)" fill="#f40e34"/>
    <path id="Path_43" data-name="Path 43" d="M430.11,79.055a7.055,7.055,0,0,1-13.193,3.5,7.338,7.338,0,0,1-.917-3.5,7.055,7.055,0,0,1,14.11,0Z" transform="translate(-317.78 -64.945)" fill="#f40e34"/>
    <path id="Path_44" data-name="Path 44" d="M318.11,143.092a7.055,7.055,0,1,1-.941-3.5A7.055,7.055,0,0,1,318.11,143.092Z" transform="translate(-238.703 -110.169)" fill="#f40e34"/>
  </g>
  <g id="Group_25" data-name="Group 25" transform="translate(44.204 26.31)">
    <rect id="Rectangle_25" data-name="Rectangle 25" width="25.624" height="4.701" transform="matrix(-0.863, 0.506, -0.506, -0.863, 92.529, 8.928)" fill="#a6001e"/>
    <rect id="Rectangle_26" data-name="Rectangle 26" width="4.703" height="27.766" transform="translate(59.022 17.168) rotate(128.194)" fill="#a6001e"/>
    <rect id="Rectangle_27" data-name="Rectangle 27" width="45.794" height="4.703" transform="matrix(-0.533, 0.846, -0.846, -0.533, 28.4, 4.701)" fill="#a6001e"/>
  </g>
  <g id="Group_26" data-name="Group 26" transform="translate(41.969 21)">
    <rect id="Rectangle_28" data-name="Rectangle 28" width="5" height="4" transform="translate(98.096 31)" fill="#fff"/>
    <rect id="Rectangle_29" data-name="Rectangle 29" width="5" height="5" transform="translate(98.096 7)" fill="#fff"/>
    <rect id="Rectangle_30" data-name="Rectangle 30" width="5" height="5" transform="translate(65.096 26)" fill="#fff"/>
    <rect id="Rectangle_31" data-name="Rectangle 31" width="5" height="5" transform="translate(32.096)" fill="#fff"/>
    <rect id="Rectangle_32" data-name="Rectangle 32" width="4" height="5" transform="translate(0.096 52)" fill="#fff"/>
    <rect id="Rectangle_33" data-name="Rectangle 33" width="4" height="5" transform="translate(0.096 87)" fill="#fff"/>
    <rect id="Rectangle_34" data-name="Rectangle 34" width="5" height="5" transform="translate(32.096 61)" fill="#fff"/>
    <rect id="Rectangle_35" data-name="Rectangle 35" width="5" height="4" transform="translate(65.096 71)" fill="#fff"/>
  </g>
</svg>
