<svg xmlns="http://www.w3.org/2000/svg" width="56.117" height="56.117" viewBox="0 0 56.117 56.117">
  <g id="navegador" transform="translate(0 0)">
    <path id="Path_28" data-name="Path 28" d="M55.6,41.809,33.795,18.543a7.767,7.767,0,0,0-11.471,0L.514,41.809a1.96,1.96,0,0,0,0,2.646,1.676,1.676,0,0,0,2.479,0l1.391-1.484V66.752a5.218,5.218,0,0,0,5.042,5.378h8.768a1.134,1.134,0,0,0,1.1-1.169v-17.3a5.672,5.672,0,0,1,5.48-5.846h6.576a5.672,5.672,0,0,1,5.48,5.846v17.3a1.134,1.134,0,0,0,1.1,1.169h8.768a5.218,5.218,0,0,0,5.042-5.378V42.971l1.391,1.484a1.675,1.675,0,0,0,2.479,0A1.96,1.96,0,0,0,55.6,41.809Z" transform="translate(-0.001 -16.014)" fill="#8d8686"/>
  </g>
</svg>
