<svg xmlns="http://www.w3.org/2000/svg" width="124.255" height="87.367" viewBox="0 0 124.255 87.367">
  <g id="olho" transform="translate(0 -76)">
    <path id="Path_88" data-name="Path 88" d="M81.318,186c21.223,0,41.674,12.576,55.9,27.062-10.962,18.66-32.695,31.183-55.9,31.183s-44.936-12.523-55.9-31.183C39.644,198.576,60.095,186,81.318,186Z" transform="translate(-19.251 -83.305)" fill="#e3f2ff"/>
    <path id="Path_89" data-name="Path 89" d="M219.726,252.988a16.988,16.988,0,1,0-16.988,16.988A16.988,16.988,0,0,0,219.726,252.988Z" transform="translate(-140.671 -121.17)" fill="#4dbbeb"/>
    <path id="Path_90" data-name="Path 90" d="M240.6,286a4.854,4.854,0,1,1-4.854,4.854A4.852,4.852,0,0,1,240.6,286Z" transform="translate(-178.537 -159.036)" fill="#57555c"/>
    <path id="Path_91" data-name="Path 91" d="M190.141,260.141a2.426,2.426,0,1,0-3.432,0A2.424,2.424,0,0,0,190.141,260.141Z" transform="translate(-140.859 -136.315)"/>
    <path id="Path_92" data-name="Path 92" d="M240.561,283.281a7.281,7.281,0,1,0-7.281,7.281A7.289,7.289,0,0,0,240.561,283.281Zm-9.707,0a2.427,2.427,0,1,1,2.427,2.427A2.43,2.43,0,0,1,230.854,283.281Z" transform="translate(-171.153 -151.463)"/>
    <path id="Path_93" data-name="Path 93" d="M195.415,264.83a19.415,19.415,0,1,0-7.8-37.2,2.427,2.427,0,1,0,1.953,4.444,14.43,14.43,0,0,1,5.843-1.219,14.561,14.561,0,1,1-14.561,14.561c0-.083,0-.164,0-.247a2.427,2.427,0,0,0-4.852-.113c0,.121,0,.239,0,.36A19.437,19.437,0,0,0,195.415,264.83Z" transform="translate(-133.287 -113.597)"/>
    <path id="Path_94" data-name="Path 94" d="M250.854,92.988V78.427a2.427,2.427,0,0,0-4.854,0V92.988a2.427,2.427,0,1,0,4.854,0Z" transform="translate(-186.299)"/>
    <path id="Path_95" data-name="Path 95" d="M99.227,119.227a2.427,2.427,0,0,0,0-3.432L88.932,105.5a2.427,2.427,0,0,0-3.432,3.432l10.295,10.295A2.427,2.427,0,0,0,99.227,119.227Z" transform="translate(-64.212 -21.803)"/>
    <path id="Path_96" data-name="Path 96" d="M368.933,119.227l10.295-10.295A2.427,2.427,0,0,0,375.8,105.5L365.5,115.795a2.427,2.427,0,1,0,3.432,3.432Z" transform="translate(-276.261 -21.803)"/>
    <path id="Path_97" data-name="Path 97" d="M.608,207.964a2.427,2.427,0,1,0,3.638,3.213c.517-.586,1.047-1.169,1.584-1.749,11.992,18.12,33.732,29.67,56.3,29.67s44.306-11.55,56.3-29.67c.537.58,1.066,1.163,1.584,1.749a2.427,2.427,0,0,0,3.638-3.213C108.23,190.51,85.339,176,62.127,176S16.022,190.514.608,207.964Zm61.519-27.11c24.205,0,44.184,16.529,52.83,25-10.974,17.3-31.494,28.39-52.83,28.39S20.271,223.159,9.3,205.855C17.944,197.383,37.922,180.854,62.127,180.854Z" transform="translate(0 -75.731)"/>
  </g>
</svg>
