<svg xmlns="http://www.w3.org/2000/svg" width="101.86" height="100.652" viewBox="0 0 101.86 100.652">
  <g id="Filled_outline" data-name="Filled outline" transform="translate(-1.999 -2.71)">
    <path id="Path_104" data-name="Path 104" d="M61.917,49.431A23.767,23.767,0,0,1,14.892,43.9,23.417,23.417,0,0,1,26.767,24.186L19.977,14A35.773,35.773,0,0,0,38.651,80.208c9.143,0,17.457-4.526,23.767-10.186V90.393c0,1.867,2.66,3.4,5.942,3.4s5.942-1.528,5.942-3.4V49.65c0-2.6-2.175-5.093-6.791-5.093h0a5.667,5.667,0,0,0-5.594,4.874Z" transform="translate(0.698 7.876)" fill="#f98c96"/>
    <ellipse id="Ellipse_10" data-name="Ellipse 10" cx="5.942" cy="3.395" rx="5.942" ry="3.395" transform="translate(63.116 94.874)" fill="#db527d"/>
    <path id="Path_105" data-name="Path 105" d="M77.905,11C62.649,19.525,45.589,27.972,33.767,27.972a23.764,23.764,0,1,0,22.66,16.6c4.7-3.037,40.152-25.7,40.152-35.27C96.579-.888,89.021,4.782,77.905,11Z" transform="translate(5.582 0.695)" fill="#fcf05a"/>
    <path id="Path_106" data-name="Path 106" d="M39.349,89.781a36.7,36.7,0,0,0,22.069-8.262V98.27c0,2.9,3.285,5.093,7.639,5.093s7.639-2.19,7.639-5.093V57.526c0-3.271-2.655-6.791-8.488-6.791a7.215,7.215,0,0,0-3.422.849A25.519,25.519,0,0,0,63.99,46c18.363-11.889,39.869-27.61,39.869-36.008,0-3.477-.861-5.665-2.631-6.689-3.246-1.867-8.13.927-14.888,4.811-1.176.679-2.4,1.38-3.68,2.093-13.961,7.8-31.5,16.761-43.31,16.761a25.088,25.088,0,0,0-11.395,2.765l-5.867-8.8a1.7,1.7,0,0,0-2.288-.509A36.942,36.942,0,0,0,2,52.433,37.39,37.39,0,0,0,39.349,89.781ZM69.057,99.967c-2.757,0-4.244-1.205-4.244-1.7s1.487-1.7,4.244-1.7,4.244,1.205,4.244,1.7S71.814,99.967,69.057,99.967ZM61.43,43.618l-.34.219a1.7,1.7,0,0,0-.7,1.937A22.061,22.061,0,0,1,22.269,66.388c.221-1.6,1.445-8.907,5.58-12.951.912,3.959,4.044,10.88,14.9,10.88v-3.4c-10.074,0-11.605-7.281-11.839-9.537a8.811,8.811,0,0,1,3.351-.648A16.949,16.949,0,0,0,44.467,48.13c1.969,1.735,6.132,4.3,13.556,4.3v-3.4c-6.419,0-9.8-2.108-11.26-3.4a7.19,7.19,0,0,0,1.075-3.4c0-.139.058-3.4,5.093-3.4a11.316,11.316,0,0,0,6.111-1.392l8.52,2.131C65.611,40.89,63.579,42.231,61.43,43.618ZM81.6,14.68q1.377-.759,2.716-1.507c1.287-.72,2.528-1.433,3.714-2.114C92.12,8.708,96.686,6.081,98.8,6.081a1.435,1.435,0,0,1,.727.17c.282.17.937.849.937,3.75,0,1.188-.871,2.954-2.8,5.317L80.788,19.537ZM80,24.11a1.491,1.491,0,0,0,.065-.256l.112-.679,13.153-3.283a129.794,129.794,0,0,1-10.116,8.536l-4.741-1.9A7.661,7.661,0,0,0,80,24.11Zm-15.19-.927c4.388-1.981,8.784-4.2,13-6.451l-1.066,6.392c-.258.559-2.047,3.845-8.541,3.845a17.7,17.7,0,0,0-3.4.306Zm3.4,7.181a15.869,15.869,0,0,0,7.074-1.453l4.77,1.908c-2.616,1.944-5.512,4.013-8.721,6.215L61.3,34.529a3.416,3.416,0,0,0,.114-.732C61.435,33.445,61.768,30.364,68.209,30.364ZM28.27,33.432a21.767,21.767,0,0,1,11.079-3.068c6.358,0,14.109-2.346,22.069-5.7v3.84a6.6,6.6,0,0,0-3.4,5.156c-.08.621-1.251,1.793-5.093,1.793-6.714,0-8.488,4.443-8.488,6.76,0,.2-.275,4.475-8.318,5.056a22.166,22.166,0,0,1,6.12-12.313l-2.4-2.4a25.388,25.388,0,0,0-7.176,14.883c-8.31.978-11.729,9.542-13.051,14.822a21.9,21.9,0,0,1-2.336-9.831,22.259,22.259,0,0,1,10.99-19ZM20.184,24.2l4.85,7.276a25.953,25.953,0,0,0-6.4,6.325l-3.553-3.545-2.4,2.4L16.8,40.772a25.2,25.2,0,0,0-2.855,9.963H8.791v3.4h5.179A25.274,25.274,0,0,0,18.7,67.283L14.382,71.6l2.4,2.4,4.095-4.086a25.437,25.437,0,0,0,13.379,7.47v5.6h3.4V77.811c.564.037,1.124.087,1.7.087a25.291,25.291,0,0,0,11.7-2.871L55.127,79.1l2.4-2.4-3.494-3.494a25.5,25.5,0,0,0,10.238-15.55h0a3.972,3.972,0,0,1,3.937-3.524c3.093,0,5.093,1.333,5.093,3.4V76.2h-3.4v3.4h3.4v14.4a11.459,11.459,0,0,0-8.488,0v-4.21h5.093v-3.4H64.813V78.548a22.239,22.239,0,0,0,5.093-14.231h-3.4a18.864,18.864,0,0,1-4.563,12.345c-7,6.269-15.026,9.724-22.6,9.724A33.992,33.992,0,0,1,5.4,52.433,33.613,33.613,0,0,1,20.184,24.2Z"/>
    <rect id="Rectangle_46" data-name="Rectangle 46" width="3.395" height="3.395" transform="translate(47.837 57.526)"/>
    <rect id="Rectangle_47" data-name="Rectangle 47" width="3.395" height="3.395" transform="translate(39.349 67.712)"/>
  </g>
</svg>
