<svg xmlns="http://www.w3.org/2000/svg" width="118.86" height="97.822" viewBox="0 0 118.86 97.822">
  <g id="pulmao" transform="translate(0 -42.481)">
    <path id="Path_118" data-name="Path 118" d="M283.02,142.538v47.774A9.863,9.863,0,0,0,288.166,199a38.08,38.08,0,0,0,36.433.027,9.9,9.9,0,0,0,5.217-8.726V168.655a40.143,40.143,0,0,0-30.361-38.934,13.218,13.218,0,0,0-16.435,12.817Z" transform="translate(-212.937 -65.333)" fill="#fe4f60"/>
    <path id="Path_119" data-name="Path 119" d="M54.8,142.539v47.774A9.863,9.863,0,0,1,49.651,199a38.08,38.08,0,0,1-36.433.027A9.9,9.9,0,0,1,8,190.3V168.656a40.143,40.143,0,0,1,30.361-38.934A13.217,13.217,0,0,1,54.8,142.539Z" transform="translate(-6.019 -65.333)" fill="#fe4f60"/>
    <path id="Path_120" data-name="Path 120" d="M51.849,134.216a3.163,3.163,0,0,1-2.058,5.121,13.376,13.376,0,0,0-1.524.291,40.143,40.143,0,0,0-30.361,38.934c0,9.181,0,14.535,0,17.693a3.163,3.163,0,0,1-4.644,2.8A9.894,9.894,0,0,1,8,190.3V168.657a40.143,40.143,0,0,1,30.361-38.934A13.2,13.2,0,0,1,51.849,134.216Z" transform="translate(-6.019 -65.334)" fill="#ff6d7a"/>
    <path id="Path_121" data-name="Path 121" d="M307.24,132.554a2.21,2.21,0,0,1-1.016,4.193,13.226,13.226,0,0,0-13.3,13.22c0,29.034-.094,40.913,0,46.17a3.205,3.205,0,0,1-4.709,2.89,9.862,9.862,0,0,1-5.192-8.714V142.539a13.218,13.218,0,0,1,16.435-12.817,40.115,40.115,0,0,1,7.785,2.832Z" transform="translate(-212.937 -65.333)" fill="#ff6d7a"/>
    <path id="Path_122" data-name="Path 122" d="M118.861,124.97a11.859,11.859,0,0,1-6.262,10.472,40.065,40.065,0,0,1-38.31-.031A11.823,11.823,0,0,1,68.1,124.98V108.019a1.981,1.981,0,0,1,3.962,0V124.98a7.866,7.866,0,0,0,4.107,6.945,36.1,36.1,0,0,0,34.556.025,7.9,7.9,0,0,0,4.172-6.98v-6.905a11.9,11.9,0,0,0-11.782,4.59,1.981,1.981,0,0,1-3.181-2.362,16.139,16.139,0,0,1,3.269-3.262,10.216,10.216,0,0,1-3.386-6.136,1.981,1.981,0,0,1,3.911-.632,5.929,5.929,0,0,0,3.43,4.615,15.787,15.787,0,0,1,7.739-.823v-10.73A38.115,38.115,0,0,0,86.036,66.311a11.232,11.232,0,0,0-13.972,10.9V94.318l4.812,4.034a18.082,18.082,0,0,1,4.548-2.794,10.756,10.756,0,0,1,.239-8.862A1.981,1.981,0,0,1,85.239,88.4a6.749,6.749,0,0,0,.038,6.039,17.542,17.542,0,0,1,7.352.356,1.981,1.981,0,0,1-1.021,3.828,13.307,13.307,0,0,0-11.636,2.321l5.247,4.4a1.981,1.981,0,1,1-2.545,3.036L59.431,88.9,36.189,108.382a1.981,1.981,0,1,1-2.545-3.036l5.247-4.4a13.307,13.307,0,0,0-11.636-2.321A1.981,1.981,0,0,1,26.234,94.8a17.546,17.546,0,0,1,7.352-.356,6.749,6.749,0,0,0,.038-6.039A1.981,1.981,0,0,1,37.2,86.7a10.754,10.754,0,0,1,.239,8.862,18.082,18.082,0,0,1,4.548,2.794L46.8,94.318V77.207a11.232,11.232,0,0,0-13.972-10.9A38.115,38.115,0,0,0,3.962,103.323v10.73a15.788,15.788,0,0,1,7.739.823,5.932,5.932,0,0,0,3.43-4.615,1.981,1.981,0,0,1,3.911.632,10.216,10.216,0,0,1-3.386,6.136,16.158,16.158,0,0,1,3.269,3.262,1.981,1.981,0,1,1-3.181,2.362,11.9,11.9,0,0,0-11.782-4.59v6.905a7.9,7.9,0,0,0,4.172,6.98,36.1,36.1,0,0,0,34.556-.025A7.866,7.866,0,0,0,46.8,124.98V108.019a1.981,1.981,0,0,1,3.962,0V124.98a11.824,11.824,0,0,1-6.187,10.431,40.065,40.065,0,0,1-38.31.031A11.859,11.859,0,0,1,0,124.97V103.323A42.072,42.072,0,0,1,31.86,62.469a15.193,15.193,0,0,1,18.9,14.738V91l6.69-5.609V44.462a1.981,1.981,0,0,1,3.962,0V85.387L68.1,91V77.206A15.194,15.194,0,0,1,87,62.468a42.073,42.073,0,0,1,31.859,40.855Z"/>
  </g>
</svg>
