<svg xmlns="http://www.w3.org/2000/svg" xmlns:xlink="http://www.w3.org/1999/xlink" width="150.649" height="112.987" viewBox="0 0 150.649 112.987">
  <defs>
    <linearGradient id="linear-gradient" x1="-0.089" y1="1.502" x2="-0.047" y2="1.476" gradientUnits="objectBoundingBox">
      <stop offset="0" stop-color="#fff" stop-opacity="0.2"/>
      <stop offset="1" stop-color="#fff" stop-opacity="0"/>
    </linearGradient>
  </defs>
  <g id="rins" transform="translate(0 -64)">
    <g id="Group_27" data-name="Group 27" transform="translate(0 64)">
      <path id="Path_45" data-name="Path 45" d="M307.467,64c-11.616,0-18.831,8.42-18.831,21.97a27.027,27.027,0,0,0,2.5,11.611c-15.862,5.3-24.474,20.045-24.474,32.328v43.939a3.137,3.137,0,0,0,3.139,3.139h9.416a3.137,3.137,0,0,0,3.139-3.139V139.324c0-.756.071-1.42.1-2.142.516,12.568,10.389,20.973,25.01,20.973,14.13,0,31.385-21.724,31.385-47.078C338.852,81.6,327.119,64,307.467,64ZM283.21,130.1c1.025-5.136,3.027-9,5.957-11.625A38.3,38.3,0,0,0,283.21,130.1Z" transform="translate(-188.203 -64)" fill="#303c42"/>
      <path id="Path_46" data-name="Path 46" d="M47.712,97.581a27.028,27.028,0,0,0,2.5-11.611C50.216,72.42,43,64,31.385,64,11.733,64,0,81.6,0,111.078c0,25.353,17.256,47.078,31.385,47.078,14.622,0,24.495-8.405,25.01-20.973.026.722.1,1.386.1,2.142v34.524a3.137,3.137,0,0,0,3.139,3.139h9.416a3.137,3.137,0,0,0,3.139-3.139V129.909C72.186,117.625,63.574,102.881,47.712,97.581Zm1.973,20.9c2.93,2.625,4.932,6.488,5.956,11.624A38.317,38.317,0,0,0,49.686,118.477Z" transform="translate(0 -64)" fill="#303c42"/>
    </g>
    <path id="Path_47" data-name="Path 47" d="M46.442,166.935c-9.912,0-25.108-18.279-25.108-40.8,0-25.93,9.152-40.8,25.108-40.8C57.366,85.333,59,95.165,59,101.025c0,5.33-1.557,8.389-3.212,11.625-1.508,2.958-3.065,6.014-3.065,10.344,0,4.45,2.783,8.361,5.725,12.5,3.359,4.72,6.829,9.6,6.829,15.745C65.273,162.812,55.545,166.935,46.442,166.935Z" transform="translate(-15.057 -15.056)" fill="#8d6e63"/>
    <g id="Group_28" data-name="Group 28" transform="translate(43.939 103.284)">
      <path id="Path_48" data-name="Path 48" d="M171.3,264.937h-3.139V233.552c0-17.03-6.647-27.683-18.647-30.448a5.5,5.5,0,0,1-.184-.937,11.6,11.6,0,0,1,1.04-4.655c15.109,4.576,20.93,18.449,20.93,26.625Z" transform="translate(-149.333 -197.511)" fill="#e6e6e6"/>
      <path id="Path_49" data-name="Path 49" d="M291.139,233.552v31.385H288v-40.8c0-8.177,5.821-22.049,20.93-26.625a11.6,11.6,0,0,1,1.04,4.655,5.507,5.507,0,0,1-.184.937C297.785,205.869,291.139,216.522,291.139,233.552Z" transform="translate(-247.199 -197.512)" fill="#e6e6e6"/>
    </g>
    <path id="Path_50" data-name="Path 50" d="M360.164,166.936c-9.1,0-18.831-4.122-18.831-15.693,0-6.142,3.47-11.025,6.829-15.745,2.942-4.141,5.725-8.052,5.725-12.5,0-4.331-1.557-7.387-3.065-10.344-1.655-3.237-3.212-6.3-3.212-11.625,0-5.86,1.631-15.692,12.554-15.692,15.956,0,25.108,14.871,25.108,40.8C385.272,148.657,370.076,166.936,360.164,166.936Z" transform="translate(-240.9 -15.057)" fill="#8d6e63"/>
    <g id="Group_29" data-name="Group 29" transform="translate(6.277 70.277)">
      <path id="Path_51" data-name="Path 51" d="M24.864,129.665c0-25.93,9.152-40.8,25.108-40.8a12.528,12.528,0,0,1,6.457,1.581c-1.824-2.91-4.855-5.112-9.988-5.112-15.956,0-25.108,14.871-25.108,40.8,0,15.849,7.527,29.565,15.441,36.32A51.078,51.078,0,0,1,24.864,129.665Z" transform="translate(-21.333 -85.333)" fill="#fff" opacity="0.2"/>
      <path id="Path_52" data-name="Path 52" d="M344.865,154.773c0-6.142,3.47-11.025,6.829-15.745,2.942-4.141,5.725-8.052,5.725-12.5,0-4.331-1.557-7.386-3.065-10.344-1.655-3.237-3.212-6.3-3.212-11.625,0-5.86,1.631-15.692,12.554-15.692a20.321,20.321,0,0,1,12.972,4.53,20.385,20.385,0,0,0-16.5-8.061c-10.924,0-12.554,9.832-12.554,15.692,0,5.33,1.557,8.389,3.212,11.625,1.508,2.958,3.065,6.014,3.065,10.344,0,4.45-2.783,8.361-5.725,12.5-3.359,4.72-6.829,9.6-6.829,15.745,0,5.878,2.522,9.818,6.187,12.287A14.668,14.668,0,0,1,344.865,154.773Z" transform="translate(-247.178 -85.334)" fill="#fff" opacity="0.2"/>
    </g>
    <path id="Path_53" data-name="Path 53" d="M47.712,97.581a27.028,27.028,0,0,0,2.5-11.611C50.216,72.42,43,64,31.385,64,11.733,64,0,81.6,0,111.078c0,25.353,17.256,47.078,31.385,47.078,14.622,0,24.495-8.405,25.01-20.973.026.722.1,1.386.1,2.142v34.524a3.137,3.137,0,0,0,3.139,3.139h9.416a3.137,3.137,0,0,0,3.139-3.139V129.909C72.186,117.625,63.574,102.881,47.712,97.581Zm1.973,20.9c2.93,2.625,4.932,6.488,5.956,11.624A38.317,38.317,0,0,0,49.686,118.477ZM119.264,64c-11.616,0-18.831,8.42-18.831,21.97a27.027,27.027,0,0,0,2.5,11.611c-15.862,5.3-24.474,20.045-24.474,32.328v43.939a3.137,3.137,0,0,0,3.139,3.139h9.416a3.137,3.137,0,0,0,3.139-3.139V139.324c0-.756.071-1.42.1-2.142.516,12.568,10.389,20.973,25.01,20.973,14.13,0,31.385-21.724,31.385-47.078C150.649,81.6,138.916,64,119.264,64ZM95.007,130.1c1.025-5.136,3.027-9,5.957-11.625A38.3,38.3,0,0,0,95.007,130.1Z" transform="translate(0 0)" fill="url(#linear-gradient)"/>
  </g>
</svg>
