<svg id="sair" xmlns="http://www.w3.org/2000/svg" width="56.117" height="56.117" viewBox="0 0 56.117 56.117">
  <path id="Path_26" data-name="Path 26" d="M32.687,30.4a2.262,2.262,0,0,0-2.179,2.338v9.353a2.265,2.265,0,0,1-2.179,2.338H21.792V9.357a4.7,4.7,0,0,0-2.968-4.445l-.645-.232H28.329a2.265,2.265,0,0,1,2.179,2.338v7.015a2.184,2.184,0,1,0,4.358,0V7.018A6.8,6.8,0,0,0,28.329,0H4.9A1.61,1.61,0,0,0,4.67.055C4.565.046,4.465,0,4.358,0A4.53,4.53,0,0,0,0,4.68V46.768a4.7,4.7,0,0,0,2.968,4.445L16.082,55.9a4.23,4.23,0,0,0,1.351.217,4.53,4.53,0,0,0,4.358-4.677V49.106h6.538a6.8,6.8,0,0,0,6.537-7.015V32.739A2.262,2.262,0,0,0,32.688,30.4Zm0,0" transform="translate(0 -0.004)" fill="#8d8686"/>
  <path id="Path_27" data-name="Path 27" d="M300.665,116.021l-8.717-8.717a2.178,2.178,0,0,0-3.72,1.541v6.537h-8.717a2.179,2.179,0,1,0,0,4.358h8.717v6.538a2.179,2.179,0,0,0,3.72,1.541l8.717-8.717a2.177,2.177,0,0,0,0-3.081Zm0,0" transform="translate(-245.186 -94.407)" fill="#8d8686"/>
</svg>
