<svg xmlns="http://www.w3.org/2000/svg" width="54.069" height="64.808" viewBox="0 0 54.069 64.808">
  <g id="do-utilizador" transform="translate(0 0)">
    <path id="Path_129" data-name="Path 129" d="M102.641,31.218a15.1,15.1,0,0,0,11.037-4.573,15.1,15.1,0,0,0,4.573-11.036,15.105,15.105,0,0,0-4.573-11.036,15.606,15.606,0,0,0-22.073,0,15.1,15.1,0,0,0-4.573,11.036,15.1,15.1,0,0,0,4.574,11.037A15.107,15.107,0,0,0,102.641,31.218Zm0,0" transform="translate(-76.016 0)" fill="#8d8686"/>
    <path id="Path_130" data-name="Path 130" d="M53.938,265.845a38.556,38.556,0,0,0-.525-4.095,32.266,32.266,0,0,0-1.007-4.117,20.333,20.333,0,0,0-1.692-3.84,14.49,14.49,0,0,0-2.552-3.326,11.253,11.253,0,0,0-3.666-2.3,12.67,12.67,0,0,0-4.68-.847,4.751,4.751,0,0,0-2.537,1.076c-.76.5-1.65,1.07-2.643,1.7a15.144,15.144,0,0,1-3.42,1.507,13.278,13.278,0,0,1-8.365,0,15.109,15.109,0,0,1-3.417-1.506c-.983-.628-1.873-1.2-2.645-1.7a4.744,4.744,0,0,0-2.536-1.076,12.654,12.654,0,0,0-4.68.848,11.243,11.243,0,0,0-3.667,2.3,14.492,14.492,0,0,0-2.551,3.326,20.376,20.376,0,0,0-1.692,3.84A32.339,32.339,0,0,0,.654,261.75a38.418,38.418,0,0,0-.525,4.1c-.086,1.24-.13,2.527-.13,3.827a10.761,10.761,0,0,0,3.2,8.141,11.506,11.506,0,0,0,8.236,3H42.637a11.5,11.5,0,0,0,8.235-3,10.757,10.757,0,0,0,3.2-8.142c0-1.306-.044-2.594-.131-3.828Zm0,0" transform="translate(0 -216.012)" fill="#8d8686"/>
  </g>
</svg>
